<svg width="30" height="30" viewBox="0 0 30 30" fill="none" xmlns="http://www.w3.org/2000/svg">
<g clip-path="url(#clip0_32_49)">
<path d="M29.7076 15.3455C29.7076 14.3259 29.6249 13.3007 29.4485 12.2976H15.3V18.0738H23.4022C23.066 19.9367 21.9857 21.5847 20.4039 22.6319V26.3799H25.2376C28.0761 23.7674 29.7076 19.9092 29.7076 15.3455Z" fill="#4285F4"/>
<path d="M15.3 30.001C19.3456 30.001 22.7573 28.6727 25.2431 26.3799L20.4093 22.6319C19.0645 23.5469 17.3283 24.065 15.3055 24.065C11.3922 24.065 8.07421 21.4249 6.88369 17.8754H1.89563V21.739C4.44202 26.8043 9.6285 30.001 15.3 30.001V30.001Z" fill="#34A853"/>
<path d="M6.87822 17.8754C6.24989 16.0124 6.24989 13.9951 6.87822 12.1322V8.26852H1.89568C-0.231827 12.507 -0.231827 17.5006 1.89568 21.739L6.87822 17.8754V17.8754Z" fill="#FBBC04"/>
<path d="M15.3 5.93708C17.4385 5.90401 19.5054 6.70871 21.0542 8.18584L25.3367 3.90327C22.625 1.35688 19.0259 -0.0430825 15.3 0.00101083C9.6285 0.00101083 4.44202 3.19778 1.89563 8.26851L6.87818 12.1322C8.06318 8.57716 11.3867 5.93708 15.3 5.93708V5.93708Z" fill="#EA4335"/>
</g>
<defs>
<clipPath id="clip0_32_49">
<rect width="30" height="30" fill="white"/>
</clipPath>
</defs>
</svg>
